<?xml version="1.0" standalone="no"?>
<!DOCTYPE svg PUBLIC "-//W3C//DTD SVG 1.0//EN" "http://www.w3.org/TR/2001/REC-SVG-20010904/DTD/svg10.dtd">
<svg xmlns="http://www.w3.org/2000/svg" xmlns:xlink="http://www.w3.org/1999/xlink" id="body_1" width="12" height="13">

<g transform="matrix(0.010526317 0 0 0.01015625 0 0)">
	<g>
        <path d="M-1 -1L581 -1L581 401L-1 401z" stroke="none" fill="none" />
	</g>
	<g>
		<g transform="matrix(0.1 0 -0 -0.1 0 1280)">
            <path d="M2157 12789C 1681 12743 1235 12571 917 12313C 677 12117 480 11835 390 11559C 251 11134 148 10365 80 9255C 75 9162 68 9049 65 9005C 54 8840 30 8230 18 7825C 2 7280 2 5520 18 4975C 30 4570 54 3960 65 3795C 68 3751 75 3639 80 3545C 148 2435 251 1666 390 1241C 500 904 743 595 1070 375C 1178 303 1404 192 1540 145C 2084 -43 2692 -47 3235 135C 3823 331 4252 735 4420 1250C 4661 1993 4802 3886 4802 6400C 4802 8914 4661 10807 4420 11550C 4216 12176 3628 12632 2858 12759C 2613 12800 2375 12810 2157 12789z" stroke="none" fill="#FFFFFF" fill-rule="nonzero" />
            <path d="M8750 12789C 8703 12784 8610 12771 8542 12759C 7770 12630 7184 12176 6980 11550C 6739 10807 6598 8914 6598 6400C 6598 3886 6739 1993 6980 1250C 7148 735 7577 331 8165 135C 8708 -47 9316 -43 9860 145C 9996 192 10222 303 10330 375C 10657 595 10900 904 11010 1241C 11149 1666 11252 2435 11320 3545C 11325 3639 11332 3751 11335 3795C 11346 3960 11370 4570 11382 4975C 11398 5520 11398 7280 11382 7825C 11370 8230 11346 8840 11335 9005C 11332 9049 11325 9162 11320 9255C 11252 10365 11149 11134 11010 11559C 10940 11773 10814 11981 10650 12153C 10478 12333 10332 12439 10105 12550C 9880 12660 9649 12731 9387 12771C 9234 12794 8885 12804 8750 12789z" stroke="none" fill="#FFFFFF" fill-rule="nonzero" />
		</g>
        <path d="" stroke="#000000" stroke-width="1.5" fill="#FFFFFF" fill-rule="nonzero" fill-opacity="0.49803922" />
	</g>
</g>
</svg>